# xmcd
#
# Track frame offsets:
#	150
#	13158
#	25650
#	43228
#	57595
#	77532
#	94285
#	118323
#	133690
#	147160
#	163277
#	181003
#	194129
#	210241
#	235918
#	252270
#	269529
#
# Disc length: 3968 seconds
#
# Revision: 1
# Processed by: cddbd v1.5.2PL0 Copyright (c) Steve Scherf et al.
# Submitted via: audiograbber 1.83.01
#
DISCID=fb0f7e11
DTITLE=Erik Trauner - A Scarecrow´s Moan
DYEAR=2006
DGENRE=Blues
TTITLE0=A Scarecrow´s Moan
TTITLE1=The Kids Can´t Stand It
TTITLE2=I Hope This Man Was Heaven Bound
TTITLE3=I Ain´t Funny That Way
TTITLE4=You Live So Far Away
TTITLE5=Philly Angel
TTITLE6=Mainstreet Boogie
TTITLE7=Inside Job
TTITLE8=Young And Tender
TTITLE9=Grandma´s Raisin´ Chicken
TTITLE10=I´m Bound To Leave
TTITLE11=Doorbell, Doorbell
TTITLE12=Sleepy Water Blues
TTITLE13=Highway 61
TTITLE14=No, No Blues
TTITLE15=The Sinner In Me
TTITLE16=Pontchartrain Flood
EXTD=
EXTT0=
EXTT1=
EXTT2=
EXTT3=
EXTT4=
EXTT5=
EXTT6=
EXTT7=
EXTT8=
EXTT9=
EXTT10=
EXTT11=
EXTT12=
EXTT13=
EXTT14=
EXTT15=
EXTT16=
PLAYORDER=
